# xmcd CD database file
#
# Track frame offsets:
#	183
#	14875
#	26610
#	42438
#	59133
#	70160
#	81120
#	92923
#	106423
#	119673
#	132545
#	144165
#	154765
#	170270
#
# Disc length: 2472 seconds
#
# Revision: 1
# Processed by: cddbd v1.5.2PL0 Copyright (c) Steve Scherf et al.
# Submitted via: CDex 1.51
#
DISCID=cb09a60e
DTITLE=CANZONI ITALIANE - DEDICATO ALLE DONNE  Vol. 23
DYEAR=1900
DGENRE=Chanson
TTITLE0=Roberta - P. DI CAPRI
TTITLE1=Viva Maddalena - S.ENDRIGO
TTITLE2=Cerasella - G. CHRISTIAN
TTITLE3=Il pericolo nr. 1 - C. VILLA  and  G. LATILLA
TTITLE4=Che bambola - F. BUSCAGLIONE
TTITLE5=Ninì Tirabusciò - M. PARIS
TTITLE6=Bambina bambina - T. DALLARA
TTITLE7=Marina - M. MARINI
TTITLE8=Eri piccola cosi - F. BUSCAGLIONE
TTITLE9=Francescamaria!... - A. MASSEGLIA
TTITLE10=Brigitte Bardot - MICHELINO
TTITLE11=Donna - QUARTETTO CETRA
TTITLE12=Eulalia Torricelli - G. BECCARIA
TTITLE13=Violetta - A. RABAGLIATI
EXTD=
EXTT0=
EXTT1=
EXTT2=
EXTT3=
EXTT4=
EXTT5=
EXTT6=
EXTT7=
EXTT8=
EXTT9=
EXTT10=
EXTT11=
EXTT12=
EXTT13=
PLAYORDER=
